<svg width="161" height="27" viewBox="0 0 161 27" fill="none" xmlns="http://www.w3.org/2000/svg">
<path d="M109.817 13.4417C109.817 9.67599 109.817 5.90819 109.817 2.13829C109.817 0.599126 110.384 0.0255057 111.894 0.0255057C114.809 0.0255057 117.724 0.00965988 120.638 0.0255057C124.765 0.0540283 128.362 3.14397 129.06 7.23009C129.802 11.5687 127.434 15.6548 123.299 17.1211C122.844 17.2816 122.846 17.3894 123.145 17.7116C125.022 19.7452 126.884 21.7945 128.761 23.8281C129.235 24.3415 129.578 24.8845 129.43 25.624C129.37 25.9322 129.225 26.2173 129.012 26.4472C128.8 26.6771 128.528 26.8428 128.227 26.9255C127.927 27.0082 127.609 27.0048 127.31 26.9156C127.012 26.8264 126.743 26.6549 126.536 26.4205C125.473 25.2549 124.408 24.0929 123.342 22.9344C121.829 21.2801 120.317 19.6251 118.807 17.9694C118.71 17.8478 118.586 17.7508 118.445 17.686C118.304 17.6213 118.15 17.5906 117.995 17.5964C116.546 17.6144 115.097 17.6186 113.649 17.5964C113.257 17.5901 113.186 17.7359 113.187 18.0856C113.198 20.4441 113.198 22.8034 113.187 25.1634C113.187 26.318 112.432 27.0416 111.342 26.974C110.972 26.9577 110.62 26.8102 110.348 26.5576C110.075 26.305 109.9 25.9635 109.853 25.5933C109.825 25.3662 109.814 25.1375 109.817 24.9088C109.817 22.9904 109.817 21.072 109.817 19.1536V13.4417ZM113.192 8.73967C113.192 10.376 113.207 12.0145 113.182 13.6466C113.175 14.0692 113.274 14.2139 113.72 14.2086C115.952 14.1854 118.185 14.197 120.417 14.197C120.94 14.2077 121.463 14.144 121.969 14.0079C124.559 13.2579 126.13 10.7479 125.771 7.93259C125.457 5.45852 123.152 3.45349 120.548 3.42497C118.243 3.39856 115.939 3.42497 113.643 3.40913C113.267 3.40913 113.181 3.52638 113.184 3.88661C113.201 5.50183 113.19 7.12022 113.19 8.73756L113.192 8.73967Z" fill="#126A37"/>
<path d="M52.9645 13.4945C52.9645 9.6915 52.9645 5.88849 52.9645 2.08548C52.9645 0.623438 53.5532 0.026578 54.9894 0.026578C57.8691 0.026578 60.7509 -0.000888417 63.6306 0.0329161C67.3054 0.0751717 70.0018 1.84251 71.5312 5.14056C73.0408 8.39636 72.5788 11.5624 70.3433 14.3956C69.3443 15.6806 67.9839 16.6316 66.4402 17.1243C65.9782 17.2722 65.9887 17.3926 66.2904 17.719C68.134 19.7124 69.9631 21.7206 71.7984 23.7214C72.2174 24.1778 72.6364 24.6236 72.6018 25.3155C72.5673 26.0497 72.2069 26.6159 71.5344 26.8578C70.8619 27.0998 70.225 26.9983 69.7158 26.4448C68.47 25.0919 67.2269 23.7362 65.9866 22.3777C64.6185 20.8797 63.2483 19.38 61.876 17.8785C61.8057 17.7899 61.7164 17.7184 61.6148 17.6696C61.5132 17.6207 61.4019 17.5957 61.2894 17.5965C59.7715 17.6028 58.2515 17.6123 56.7336 17.5965C56.347 17.5965 56.3229 17.7739 56.324 18.075C56.331 20.4336 56.331 22.7929 56.324 25.1528C56.324 26.223 55.664 26.9487 54.7024 26.9772C53.6967 27.0047 52.9781 26.3201 52.9676 25.287C52.9519 23.7204 52.9624 22.1527 52.9624 20.5861L52.9645 13.4945ZM56.3271 8.82209V13.7871C56.3271 13.9984 56.2926 14.2097 56.6288 14.2012C59.1765 14.1833 61.7283 14.2467 64.2759 14.1463C66.2453 14.0692 68.1141 12.4561 68.7102 10.5546C69.8489 6.92269 67.3379 3.43872 63.5594 3.4197C61.3072 3.40808 59.0549 3.4271 56.8038 3.40386C56.391 3.39857 56.3198 3.53591 56.324 3.91093C56.3387 5.54728 56.3271 7.18468 56.3271 8.82209Z" fill="#126A37"/>
<path d="M160.995 13.467C161.204 20.791 154.91 27.0765 147.648 26.9888C140.217 26.9033 134.353 21.0414 134.266 13.5727C134.179 6.20752 140.296 0.0371436 147.57 0.000169897C155.055 -0.0378602 161.17 6.31422 160.995 13.467ZM137.66 13.7966C137.649 18.9877 142.244 23.8588 148.146 23.6021C153.134 23.3844 157.962 18.9307 157.648 12.8966C157.389 7.91993 153.031 3.20526 147.3 3.41231C144.658 3.50383 142.159 4.64836 140.352 6.59497C138.544 8.54157 137.576 11.1314 137.66 13.7966Z" fill="#126A37"/>
<path d="M11.8419 6.09458C11.2344 7.4869 10.6278 8.86549 10.0286 10.2472C7.77291 15.4482 5.51754 20.6499 3.26252 25.8523C2.82569 26.86 1.87766 27.252 0.94849 26.8263C0.092644 26.4333 -0.236286 25.4529 0.178542 24.4948C3.53069 16.7634 6.88285 9.0324 10.235 1.30173C10.7043 0.221044 11.4449 -0.170875 12.4212 0.115407C12.9513 0.270696 13.2593 0.643601 13.4688 1.13799C15.6756 6.22557 17.8845 11.3124 20.0956 16.3986C21.2632 19.0882 22.4295 21.7778 23.5944 24.4673C24.1632 25.7804 23.4079 26.9741 21.9948 26.9763C17.8577 26.9763 13.7216 26.9763 9.58657 26.9763C8.51807 26.9763 7.77535 26.278 7.77221 25.2945C7.76907 24.311 8.51493 23.6043 9.58133 23.6043C12.6884 23.6 15.7961 23.6 18.9045 23.6043C19.5446 23.6043 19.5445 23.6043 19.2984 23.037C16.9323 17.5761 14.5649 12.1181 12.196 6.66292C12.108 6.46326 12.0808 6.23825 11.8419 6.09458Z" fill="#126A37"/>
<path d="M28.7368 13.486C28.7368 9.70205 28.7368 5.91841 28.7368 2.13512C28.7368 0.602297 29.3077 0.0223389 30.8162 0.0223389C35.9988 0.0223389 41.1813 0.0223389 46.3639 0.0223389C47.6807 0.0223389 48.4883 1.14423 48.0494 2.33795C47.9256 2.65918 47.7066 2.93409 47.4222 3.12522C47.1378 3.31634 46.8019 3.41437 46.4603 3.40596C44.0858 3.4123 41.7114 3.4123 39.3369 3.40596C37.0858 3.40596 34.8325 3.40596 32.5834 3.39645C32.2335 3.39645 32.1005 3.46617 32.1026 3.85387C32.1193 6.35259 32.1193 8.85271 32.1026 11.3542C32.1026 11.7525 32.2566 11.8032 32.5928 11.8022C35.8402 11.7926 39.0876 11.8022 42.335 11.7958C42.9384 11.7958 43.4632 11.9321 43.876 12.418C44.6794 13.3688 44.206 14.8625 42.9992 15.1319C42.7599 15.1802 42.5161 15.2022 42.2722 15.1974C39.1142 15.2016 35.9558 15.2016 32.7971 15.1974C32.0052 15.1974 32.1173 15.133 32.1173 15.8608C32.1173 18.9402 32.1173 22.0196 32.1173 25.1C32.1173 26.2705 31.384 27.0015 30.3134 26.9592C29.9265 26.945 29.5577 26.7906 29.2745 26.5244C28.9913 26.2582 28.8127 25.8981 28.7714 25.5099C28.7486 25.2641 28.7395 25.0172 28.7442 24.7704C28.7393 21.0139 28.7368 17.2524 28.7368 13.486Z" fill="#126A37"/>
<path d="M92.0621 0.0255033C93.5108 0.0255033 94.9596 0.0181086 96.4073 0.0255033C100.87 0.0498003 104.493 3.41968 104.997 8.00548C105.461 12.249 102.483 16.4144 98.2929 17.381C97.5406 17.5384 96.7731 17.6092 96.005 17.5922C93.824 17.5922 91.642 17.6049 89.461 17.5922C89.042 17.5922 88.9372 17.7158 88.9372 18.132C88.9561 20.4906 88.9561 22.8499 88.9372 25.2099C88.9247 26.6075 87.6592 27.4008 86.4692 26.7818C86.1988 26.6513 85.9718 26.4445 85.8156 26.1865C85.6594 25.9285 85.5808 25.6303 85.5893 25.3282C85.5746 22.178 85.5662 19.0279 85.5893 15.8777C85.5966 14.8382 86.354 14.2023 87.4748 14.2012C90.4415 14.2012 93.4082 14.2086 96.379 14.1949C97.4674 14.1883 98.5278 13.8459 99.4175 13.2136C100.307 12.5814 100.984 11.6895 101.356 10.6581C102.605 7.17833 100.06 3.45666 96.3916 3.42814C93.3725 3.4049 90.3535 3.42814 87.3345 3.41863C86.023 3.41335 85.2017 2.15096 85.7537 1.00689C86.068 0.342418 86.6232 0.0297287 87.3565 0.0318414C88.9215 0.0318414 90.49 0.0297289 92.0621 0.0255033Z" fill="#126A37"/>
<path d="M77.4195 13.4417C77.4195 9.58655 77.4195 5.73248 77.4195 1.87947C77.4195 0.639267 78.3958 -0.199503 79.4989 0.0677634C79.8321 0.14518 80.1333 0.324948 80.3608 0.582277C80.5884 0.839606 80.7312 1.16181 80.7696 1.50445C80.7927 1.7149 80.8032 1.92656 80.801 2.13829C80.801 9.74008 80.801 17.3426 80.801 24.9458C80.801 25.7127 80.6439 26.3729 79.9116 26.7733C79.6895 26.8951 79.4429 26.9647 79.1903 26.9767C78.9377 26.9888 78.6857 26.9431 78.4531 26.843C78.2205 26.7429 78.0134 26.591 77.8473 26.3987C77.6812 26.2065 77.5604 25.9788 77.4939 25.7328C77.4346 25.4581 77.4093 25.1771 77.4185 24.8961C77.4164 21.0776 77.4167 17.2595 77.4195 13.4417Z" fill="#126A37"/>
</svg>
