<svg width="130" height="22" viewBox="0 0 130 22" fill="none" xmlns="http://www.w3.org/2000/svg">
<path d="M88.6721 10.8535C88.6721 7.81289 88.6721 4.77058 88.6721 1.72655C88.6721 0.483751 89.1297 0.0205792 90.3494 0.0205792C92.7025 0.0205792 95.0565 0.00778436 97.4097 0.0205792C100.742 0.0436098 103.646 2.5386 104.21 5.83795C104.809 9.34116 102.897 12.6405 99.5581 13.8245C99.191 13.9541 99.1927 14.0411 99.4338 14.3013C100.95 15.9433 102.453 17.5981 103.968 19.2401C104.352 19.6546 104.628 20.0931 104.509 20.6901C104.46 20.939 104.343 21.1692 104.171 21.3549C104 21.5405 103.78 21.6743 103.538 21.7411C103.295 21.8079 103.039 21.8051 102.797 21.7331C102.556 21.661 102.339 21.5226 102.172 21.3333C101.314 20.3922 100.454 19.4539 99.5928 18.5184C98.3708 17.1827 97.1503 15.8463 95.9311 14.5094C95.8526 14.4112 95.7525 14.3329 95.6387 14.2806C95.5249 14.2284 95.4006 14.2036 95.2756 14.2083C94.1058 14.2228 92.9351 14.2262 91.7662 14.2083C91.4498 14.2032 91.3923 14.3209 91.3932 14.6032C91.4022 16.5077 91.4022 18.4127 91.3932 20.3182C91.3932 21.2506 90.7833 21.8349 89.9036 21.7803C89.6051 21.7671 89.3207 21.648 89.1006 21.444C88.8806 21.2401 88.739 20.9643 88.7008 20.6654C88.679 20.482 88.6694 20.2974 88.6721 20.1127C88.6721 18.5637 88.6721 17.0146 88.6721 15.4656V10.8535ZM91.3974 7.05686C91.3974 8.37814 91.4092 9.70112 91.3889 11.019C91.3839 11.3602 91.4634 11.477 91.8237 11.4728C93.6262 11.454 95.4287 11.4634 97.2312 11.4634C97.6538 11.472 98.0755 11.4206 98.4839 11.3107C100.576 10.7051 101.844 8.67839 101.554 6.40518C101.301 4.40749 99.4397 2.78852 97.3369 2.76549C95.4761 2.74416 93.6152 2.76549 91.7611 2.7527C91.4575 2.7527 91.3881 2.84737 91.3906 3.13824C91.4042 4.44246 91.3957 5.74923 91.3957 7.05516L91.3974 7.05686Z" fill="white"/>
<path d="M42.7664 10.8962C42.7664 7.82541 42.7664 4.75466 42.7664 1.68391C42.7664 0.503375 43.2417 0.0214385 44.4014 0.0214385C46.7266 0.0214385 49.0535 -0.000739342 51.3788 0.0265562C54.346 0.0606757 56.5232 1.48772 57.7581 4.15074C58.977 6.77965 58.604 9.33605 56.7989 11.6238C55.9923 12.6614 54.8938 13.4293 53.6473 13.827C53.2743 13.9464 53.2828 14.0437 53.5264 14.3073C55.0151 15.9168 56.4919 17.5384 57.9738 19.1539C58.3122 19.5224 58.6505 19.8824 58.6226 20.4411C58.5947 21.0339 58.3037 21.4911 57.7607 21.6864C57.2176 21.8818 56.7034 21.7999 56.2923 21.3529C55.2863 20.2605 54.2826 19.1659 53.2811 18.0689C52.1764 16.8594 51.07 15.6484 49.962 14.4361C49.9052 14.3645 49.8331 14.3068 49.7511 14.2673C49.669 14.2279 49.5792 14.2077 49.4883 14.2083C48.2627 14.2134 47.0353 14.2211 45.8097 14.2083C45.4976 14.2083 45.4781 14.3516 45.479 14.5947C45.4846 16.4991 45.4846 18.4041 45.479 20.3097C45.479 21.1738 44.9461 21.7598 44.1696 21.7828C43.3576 21.805 42.7774 21.2523 42.7689 20.418C42.7562 19.1531 42.7647 17.8872 42.7647 16.6223L42.7664 10.8962ZM45.4815 7.1234V11.1324C45.4815 11.303 45.4536 11.4736 45.7251 11.4668C47.7822 11.4523 49.8427 11.5035 51.8998 11.4225C53.49 11.3602 54.999 10.0577 55.4803 8.5223C56.3997 5.58973 54.3722 2.77658 51.3212 2.76123C49.5027 2.75185 47.6841 2.7672 45.8664 2.74843C45.5331 2.74417 45.4756 2.85506 45.479 3.15787C45.4908 4.47915 45.4815 5.80127 45.4815 7.1234Z" fill="white"/>
<path d="M129.996 10.874C130.165 16.7878 125.082 21.863 119.219 21.7922C113.219 21.7231 108.483 16.9899 108.413 10.9593C108.343 5.01228 113.283 0.0299917 119.156 0.000137184C125.2 -0.0305703 130.137 5.09844 129.996 10.874ZM111.154 11.1401C111.145 15.3317 114.855 19.2648 119.621 19.0576C123.649 18.8818 127.547 15.2857 127.293 10.4134C127.084 6.39498 123.566 2.5881 118.938 2.75528C116.804 2.82918 114.787 3.75334 113.327 5.32513C111.868 6.89692 111.087 8.98808 111.154 11.1401Z" fill="white"/>
<path d="M9.56181 4.92121C9.07122 6.04544 8.58148 7.15859 8.09765 8.27429C6.27626 12.4738 4.45516 16.6739 2.63433 20.8746C2.28162 21.6884 1.51613 22.0048 0.765862 21.6611C0.0748057 21.3438 -0.19079 20.5522 0.144165 19.7785C2.85087 13.5358 5.55758 7.29336 8.26428 1.05121C8.64322 0.178602 9.24123 -0.137854 10.0296 0.0933053C10.4576 0.218694 10.7062 0.519798 10.8754 0.918995C12.6573 5.02698 14.4409 9.13439 16.2262 13.2412C17.1691 15.4129 18.1108 17.5846 19.0514 19.7563C19.5106 20.8166 18.9008 21.7805 17.7597 21.7822C14.4192 21.7822 11.0795 21.7822 7.7407 21.7822C6.87794 21.7822 6.27824 21.2184 6.2757 20.4242C6.27316 19.6301 6.87541 19.0595 7.73648 19.0595C10.2453 19.056 12.7546 19.056 15.2645 19.0595C15.7813 19.0595 15.7813 19.0595 15.5825 18.6014C13.6721 14.192 11.7604 9.78493 9.84771 5.38011C9.77666 5.2189 9.75466 5.03721 9.56181 4.92121Z" fill="white"/>
<path d="M23.2036 10.8894C23.2036 7.83398 23.2036 4.77887 23.2036 1.72404C23.2036 0.486356 23.6646 0.0180664 24.8826 0.0180664C29.0673 0.0180664 33.252 0.0180664 37.4367 0.0180664C38.4999 0.0180664 39.152 0.923942 38.7976 1.88782C38.6977 2.14719 38.5208 2.36917 38.2912 2.52349C38.0616 2.67782 37.7903 2.75698 37.5145 2.75018C35.5972 2.7553 33.68 2.7553 31.7627 2.75018C29.945 2.75018 28.1256 2.75018 26.3096 2.7425C26.027 2.7425 25.9196 2.7988 25.9213 3.11185C25.9348 5.12945 25.9348 7.14818 25.9213 9.16805C25.9213 9.48963 26.0457 9.53057 26.3172 9.52972C28.9393 9.52204 31.5614 9.52972 34.1835 9.5246C34.6707 9.5246 35.0945 9.63464 35.4278 10.027C36.0765 10.7947 35.6942 12.0008 34.7198 12.2183C34.5266 12.2573 34.3298 12.2751 34.1328 12.2712C31.5828 12.2746 29.0326 12.2746 26.4821 12.2712C25.8427 12.2712 25.9332 12.2192 25.9332 12.8069C25.9332 15.2933 25.9332 17.7798 25.9332 20.2671C25.9332 21.2122 25.3411 21.8025 24.4766 21.7684C24.1642 21.7568 23.8664 21.6322 23.6378 21.4173C23.4091 21.2023 23.2649 20.9115 23.2315 20.5981C23.2132 20.3996 23.2058 20.2003 23.2095 20.001C23.2056 16.9678 23.2036 13.9306 23.2036 10.8894Z" fill="white"/>
<path d="M74.3359 0.0205981C75.5057 0.0205981 76.6755 0.0146272 77.8444 0.0205981C81.4477 0.0402168 84.3735 2.76124 84.7804 6.46406C85.1551 9.8905 82.7503 13.2538 79.367 14.0343C78.7596 14.1614 78.1398 14.2187 77.5196 14.2049C75.7586 14.2049 73.9967 14.2151 72.2356 14.2049C71.8973 14.2049 71.8127 14.3047 71.8127 14.6408C71.8279 16.5452 71.8279 18.4502 71.8127 20.3558C71.8026 21.4843 70.7808 22.1249 69.8199 21.625C69.6016 21.5197 69.4182 21.3527 69.2921 21.1444C69.166 20.9361 69.1025 20.6953 69.1094 20.4513C69.0976 17.9077 69.0908 15.3641 69.1094 12.8205C69.1153 11.9812 69.7269 11.4677 70.6319 11.4668C73.0274 11.4668 75.4228 11.4728 77.8216 11.4617C78.7005 11.4564 79.5567 11.1799 80.2751 10.6694C80.9935 10.1589 81.5397 9.43877 81.8402 8.60591C82.8485 5.79617 80.7939 2.7911 77.8317 2.76807C75.394 2.7493 72.9563 2.76807 70.5186 2.76039C69.4596 2.75612 68.7964 1.7368 69.2422 0.81302C69.496 0.276492 69.9442 0.0240098 70.5363 0.0257158C71.8 0.0257158 73.0665 0.02401 74.3359 0.0205981Z" fill="white"/>
<path d="M62.5126 10.8535C62.5126 7.74068 62.5126 4.6287 62.5126 1.51757C62.5126 0.516166 63.301 -0.161102 64.1917 0.0547037C64.4607 0.117214 64.7039 0.262368 64.8876 0.470149C65.0714 0.67793 65.1867 0.938098 65.2177 1.21476C65.2363 1.38469 65.2448 1.5556 65.243 1.72655C65.243 7.86464 65.243 14.0033 65.243 20.1425C65.243 20.7618 65.1162 21.2949 64.5249 21.6182C64.3455 21.7165 64.1464 21.7727 63.9425 21.7824C63.7385 21.7922 63.535 21.7553 63.3472 21.6744C63.1594 21.5936 62.9922 21.471 62.8581 21.3157C62.7239 21.1605 62.6264 20.9767 62.5727 20.778C62.5248 20.5562 62.5044 20.3293 62.5118 20.1024C62.5101 17.0192 62.5104 13.9362 62.5126 10.8535Z" fill="white"/>
</svg>
